{"title":"X-Men Days of Future Past (2014) Web-DL 1080p GREEK SUBS","uid":11011904,"size":4396961067,"categoryP":"video","categoryS":"hd___movies","magnet":"?xt=urn:btih:c11ec0728806e5195026f3d247a32bd98a0affbe&amp;dn=X-Men+Days+of+Future+Past+%282014%29+Web-DL+1080p+GREEK+SUBS&amp;tr=udp%3A%2F%2Ftracker.openbittorrent.com%3A80&amp;tr=udp%3A%2F%2Fopen.demonii.com%3A1337&amp;tr=udp%3A%2F%2Ftracker.coppersurfer.tk%3A6969&amp;tr=udp%3A%2F%2Fexodus.desync.com%3A6969","seeders":5,"leechers":0,"uploader":"holyANT","files":-1,"time":1410374786,"description":"Eidos tainias: Peripeteia, Fantasias\nSkhnothesia: Braian Singker\nSenario: Saimon Kinmpergk, Mathiou Von, Tzein Gkolntman\nHthopoioi: Xiou Tzakman, Tzeims MakAvoi, Maikl Fasmpenter, Xali Beri, Tzenifer Lorens, Elen Peitz\nPremiera: 22 Maiou 2014 (Ellada)\nXwra paragwghs: HPA\nGlwssa: Agglika\nYpotitloi: Ellhnikoi ekswterikoi se apodosh T3LL4V1S10N?\n\n\nH tainia periexei 2 glwsses me proepilegmenh thn Rwsikh, h deyterh glwssa einai h Agglikh.\n &lt;a href=&quot;\nhttp://image.bayimg.com/0ce4cf998aa08411f46e9d252c07b20f1cfa36a6.jpg&quot; rel=&quot;nofollow&quot; target=&quot;_NEW&quot;&gt;\nhttp://image.bayimg.com/0ce4cf998aa08411f46e9d252c07b20f1cfa36a6.jpg&lt;/a&gt;\n\n\nH apolyth omada twn metallagmenwn yperhrwwn exei ksekinhsei polemo sthn tainia Â«X-Men: Hmeres Enos KSexasmenou MellontosÂ», me skopo th diaswsh twn eidwn, se dyo diaforetikes xronikes periodous. Oi agaphmenoi &quot;X-Men&quot; tha enwsoun tis dynameis tous me tous neoterous eaftoys tous, apo thn tainia &quot;X-Men: H Prwth Genia&quot;, se mia epikh maxh pou prepei na allaksei to parelthon - gia na swsei to mellon mas.\n\nGeneral\nUnique ID : 209373938022445014964194256455896690003 (0x9D83F42472FDB82683351CC9775C6D53)\nComplete name : /torrents/osekome/X-Men Days of Future Past (2014) Web-DL 1080p/X-Men Days of Future Past (2014) Web-DL 1080p.mkv\nFormat : Matroska\nFormat version : Version 4 / Version 2\nFile size : 4.09 GiB\nDuration : 2h 11mn\nOverall bit rate : 4 455 Kbps\nEncoded date : UTC 2014-09-04 23:55:53\nWriting application : mkvmerge v6.9.1 ('Blue Panther') 64bit built on Apr 18 2014 18:23:38\nWriting library : libebml v1.3.0 + libmatroska v1.4.1\n\nVideo\nID : 1\nFormat : AVC\nFormat/Info : Advanced Video Codec\nFormat profile : &lt;a class=&quot;__cf_email__&quot; href=&quot;/cdn-cgi/l/email-protection&quot; data-cfemail=&quot;a9e1c0cec1e9e59d8799&quot;&gt;[email&amp;#160;protected]&lt;/a&gt;&lt;script cf-hash='f9e31' type=&quot;text/javascript&quot;&gt;\n/* &lt;![CDATA[ */!function(){try{var t=&quot;currentScript&quot;in document?document.currentScript:function(){for(var t=document.getElementsByTagName(&quot;script&quot;),e=t.length;e--;)if(t[e].getAttribute(&quot;cf-hash&quot;))return t[e]}();if(t&amp;&amp;t.previousSibling){var e,r,n,i,c=t.previousSibling,a=c.getAttribute(&quot;data-cfemail&quot;);if(a){for(e=&quot;&quot;,r=parseInt(a.substr(0,2),16),n=2;a.length-n;n+=2)i=parseInt(a.substr(n,2),16)^r,e+=String.fromCharCode(i);e=document.createTextNode(e),c.parentNode.replaceChild(e,c)}}}catch(u){}}();/* ]]&gt; */&lt;/script&gt;\nFormat settings, CABAC : Yes\nFormat settings, ReFrames : 5 frames\nCodec ID : V_MPEG4/ISO/AVC\nDuration : 2h 11mn\nBit rate : 3 790 Kbps\nWidth : 1 916 pixels\nHeight : 796 pixels\nDisplay aspect ratio : 2.40:1\nFrame rate : 23.976 fps\nColor space : YUV\nChroma subsampling : 4:2:0\nBit depth : 8 bits\nScan type : Progressive\nBits/(Pixel*Frame) : 0.104\nStream size : 3.48 GiB (85%)\nLanguage : English\nDefault : No\nForced : No\nColor primaries : BT.709-5, BT.1361, IEC 61966-2-4, SMPTE RP177\nTransfer characteristics : BT.709-5, BT.1361\nMatrix coefficients : BT.709-5, BT.1361, IEC 61966-2-4 709, SMPTE RP177\n\nAudio #1\nID : 2\nFormat : AC-3\nFormat/Info : Audio Coding 3\nMode extension : CM (complete main)\nCodec ID : A_AC3\nDuration : 2h 11mn\nBit rate mode : Constant\nBit rate : 192 Kbps\nChannel(s) : 2 channels\nChannel positions : Front: L R\nSampling rate : 48.0 KHz\nBit depth : 16 bits\nCompression mode : Lossy\nStream size : 181 MiB (4%)\nLanguage : Russian\nDefault : Yes\nForced : No\n\nAudio #2\nID : 3\nFormat : AC-3\nFormat/Info : Audio Coding 3\nMode extension : CM (complete main)\nCodec ID : A_AC3\nDuration : 2h 11mn\nBit rate mode : Constant\nBit rate : 384 Kbps\nChannel(s) : 6 channels\nChannel positions : Front: L C R, Side: L R, LFE\nSampling rate : 48.0 KHz\nBit depth : 16 bits\nCompression mode : Lossy\nStream size : 361 MiB (9%)\nLanguage : English\nDefault : No\nForced : No\n\nMenu\n00:00:00.000 : en:Chapter 01\n00:03:33.000 : en:Chapter 02\n00:08:00.000 : en:Chapter 03\n00:10:28.000 : en:Chapter 04\n00:13:57.000 : en:Chapter 05\n00:17:01.000 : en:Chapter 06\n00:20:14.000 : en:Chapter 07\n00:22:10.000 : en:Chapter 08\n00:26:36.000 : en:Chapter 09\n00:30:30.000 : en:Chapter 10\n00:34:27.000 : en:Chapter 11\n00:35:58.000 : en:Chapter 12\n00:38:15.000 : en:Chapter 13\n00:40:34.000 : en:Chapter 14\n00:45:51.000 : en:Chapter 15\n00:48:50.000 : en:Chapter 16\n00:51:55.000 : en:Chapter 17\n00:54:39.000 : en:Chapter 18\n00:57:47.000 : en:Chapter 19\n01:00:44.000 : en:Chapter 20\n01:03:22.000 : en:Chapter 21\n01:07:05.000 : en:Chapter 22\n01:09:39.000 : en:Chapter 23\n01:13:07.000 : en:Chapter 24\n01:15:27.000 : en:Chapter 25\n01:17:23.000 : en:Chapter 26\n01:19:25.000 : en:Chapter 27\n01:24:45.000 : en:Chapter 28\n01:26:53.000 : en:Chapter 29\n01:30:58.000 : en:Chapter 30\n01:33:58.000 : en:Chapter 31\n01:37:27.000 : en:Chapter 32\n01:41:48.000 : en:Chapter 33\n01:44:46.000 : en:Chapter 34\n01:47:13.000 : en:Chapter 35\n01:51:23.000 : en:Chapter 36\n01:56:35.000 : en:Chapter 37\n02:00:05.000 : en:Chapter 38\n02:02:27.000 : en:Chapter 39\n02:10:24.000 : en:Chapter 40\n","torrent":{"xt":"urn:btih:c11ec0728806e5195026f3d247a32bd98a0affbe","amp;dn":"X-Men+Days+of+Future+Past+%282014%29+Web-DL+1080p+GREEK+SUBS","amp;tr":["udp%3A%2F%2Ftracker.openbittorrent.com%3A80","udp%3A%2F%2Fopen.demonii.com%3A1337","udp%3A%2F%2Ftracker.coppersurfer.tk%3A6969","udp%3A%2F%2Fexodus.desync.com%3A6969"],"infoHash":"c11ec0728806e5195026f3d247a32bd98a0affbe","infoHashBuffer":{"type":"Buffer","data":[193,30,192,114,136,6,229,25,80,38,243,210,71,163,43,217,138,10,255,190]},"announce":[],"urlList":[]}}